<svg width="2586" height="1509" viewBox="0 0 2586 1509" fill="none" xmlns="http://www.w3.org/2000/svg">
<rect width="2586" height="1509" fill="#E5E5E5"/>
<path fill-rule="evenodd" clip-rule="evenodd" d="M416.119 1733.26V1573.47C416.119 1552.48 429.244 1535.61 450.982 1535.61H456.998C478.727 1535.61 491.793 1552.5 491.793 1573.47V1909.87C491.793 1991.9 451.266 2057.17 380.641 2098.76C348.289 2117.92 311.359 2127.99 273.756 2127.91H258.746C176.695 2127.91 111.51 2087.35 69.8594 2016.77C50.6651 1984.43 40.5947 1947.48 40.7188 1909.87V1894.88C40.7188 1812.82 81.2657 1747.58 151.832 1705.92C184.178 1686.72 221.128 1676.64 258.746 1676.77H273.756C329.283 1676.77 376.393 1698.3 416.119 1733.26V1733.26ZM116.383 1902.36C116.383 1961.62 145.104 2006.17 197.027 2034.59C218.023 2046.07 240.816 2052.24 264.772 2052.24C322.936 2052.24 366.08 2024.8 395.836 1975.51C409.674 1952.58 416.119 1927.5 416.119 1900.83C416.119 1849.46 391.803 1809.37 350.406 1779.6C325.309 1761.55 297.057 1752.5 266.246 1752.5C202.848 1752.5 157.223 1784.53 129.84 1841.42C120.602 1860.66 116.383 1881.08 116.383 1902.36V1902.36ZM754.313 1676.77H764.801C852.477 1676.77 919.156 1719.3 961.412 1795.84C978.307 1826.45 987.35 1859.87 987.35 1894.88V1909.87C987.35 1991.9 946.9 2057.26 876.168 2098.77C843.424 2117.97 807.252 2127.91 769.303 2127.91H754.313C672.262 2127.91 607.057 2087.35 565.426 2016.77C546.222 1984.43 536.142 1947.48 536.256 1909.87V1894.88C536.256 1812.81 576.969 1747.79 647.359 1705.94C680.084 1686.5 716.285 1676.77 754.313 1676.77ZM611.93 1902.36C611.93 1959.88 640.152 2002.19 688.736 2031.95C711.549 2045.91 736.676 2052.24 763.326 2052.24C820.162 2052.24 862.174 2023.42 891.412 1975.46C905.358 1952.58 911.666 1927.46 911.666 1900.83C911.666 1847.34 885.904 1806.48 841.861 1776.87C817.731 1760.63 790.865 1752.5 761.803 1752.5C698.404 1752.5 652.779 1784.53 625.406 1841.42C616.148 1860.66 611.93 1881.08 611.93 1902.36V1902.36ZM1301.93 1758.54C1290.5 1753.19 1269.12 1751.41 1256.77 1750.94C1193.55 1748.56 1147.81 1784.17 1120.97 1839.94C1111.71 1859.18 1107.48 1879.54 1107.48 1900.83C1107.48 1965.64 1141.51 2011.02 1199.36 2038.69C1220.49 2048.79 1247.78 2050.7 1270.88 2050.7C1291.19 2050.7 1319.9 2038.26 1337.93 2029.69L1341.05 2028.21H1355.04L1356.59 2028.52C1373.79 2032.11 1386.78 2043.01 1386.78 2061.53V2069.02C1386.78 2115.09 1302.58 2125.64 1270.46 2127.89C1157.08 2135.73 1072.28 2073.46 1039.96 1965.32C1034.34 1946.54 1031.81 1927.89 1031.81 1908.32V1893.35C1031.81 1811.29 1072.54 1746.29 1142.92 1704.48C1175.64 1685.04 1211.83 1675.28 1249.85 1675.28H1264.85C1305.18 1675.28 1342.33 1686.73 1375.63 1709.48L1378.37 1711.37L1380.09 1714.22C1383.69 1720.18 1386.78 1727.08 1386.78 1734.17V1741.66C1386.78 1760.97 1372.33 1771.36 1354.89 1774.72L1353.44 1774.98H1348.97C1337.68 1774.98 1312.01 1763.29 1301.93 1758.54V1758.54ZM1547.38 1809.78C1576.77 1780.35 1606.27 1750.97 1636.1 1722.03C1644.41 1713.95 1675.88 1679.77 1688.28 1679.77H1701.83L1703.38 1680.09C1720.64 1683.68 1733.57 1694.61 1733.57 1713.16V1720.64C1733.57 1733.3 1718.75 1748 1710.57 1756.67C1693.19 1775.09 1674.89 1792.92 1657.1 1810.96L1565.67 1903.78C1605.04 1943.23 1644.36 1982.71 1683.4 2022.47C1694.23 2033.44 1704.98 2044.5 1715.64 2055.63C1719.4 2059.59 1724.95 2064.51 1728.1 2069.99C1731.49 2075.12 1733.57 2080.91 1733.57 2087.1V2094.91L1733.13 2096.71C1728.88 2113.98 1717.93 2127.91 1698.79 2127.91H1692.77C1680.25 2127.91 1666.11 2113.75 1657.54 2105.65C1639.86 2088.99 1622.8 2071.47 1605.47 2054.45L1547.38 1997.42V2088.57C1547.38 2109.57 1534.23 2126.44 1512.53 2126.44H1506.57C1484.83 2126.44 1471.71 2109.57 1471.71 2088.57V1574.94C1471.71 1553.94 1484.84 1537.14 1506.57 1537.14H1512.53C1534.23 1537.14 1547.38 1553.94 1547.38 1574.94V1809.78V1809.78ZM2490.51 1679.77H2498.03C2520.73 1679.77 2535.87 1695.06 2535.87 1717.63C2535.87 1748.96 2505.92 1756.98 2480.02 1756.98C2446.03 1756.98 2413.58 1777.55 2390.15 1800.63C2360.94 1829.43 2348.16 1866.31 2348.16 1906.86V2090.05C2348.16 2111.05 2335.04 2127.91 2313.3 2127.91H2307.32C2285.57 2127.91 2272.47 2111.06 2272.47 2090.05V1896.34C2272.47 1821.96 2308.68 1761.24 2369.05 1718.65C2405.09 1693.21 2446.38 1679.78 2490.51 1679.78V1679.77ZM1952.68 2042.82C1980.22 2052.44 2011.62 2051.06 2039.87 2046.14C2054.32 2040 2091.28 2023.87 2104.87 2026.24L2106.99 2026.6L2108.94 2027.55C2117.24 2031.58 2125.16 2037.27 2129.4 2045.72C2139.3 2065.51 2134.55 2085.42 2115.09 2096.66L2108.62 2100.4C2036.84 2141.82 1960.49 2136.08 1888.94 2097.39C1854.73 2078.89 1828.56 2051.44 1809.25 2017.97L1804.74 2010.15C1758.66 1930.35 1764.88 1846.4 1816.85 1770.51C1834.79 1744.28 1858.24 1724.02 1885.65 1708.17L1896.02 1702.18C1963.62 1663.16 2036.07 1665.84 2105.49 1700.08C2142.83 1718.5 2173.07 1745.95 2193.91 1782.06L2197.66 1788.56C2212.8 1814.79 2193.19 1837.64 2172.95 1853.27C2149.45 1871.39 2125.73 1893.21 2103.21 1912.64C2052.99 1955.99 2002.86 1999.44 1952.68 2042.82V2042.82ZM1887.69 1997.17C1943.84 1949.03 2000.02 1900.84 2056.02 1852.49C2075.16 1835.98 2096.15 1818.85 2115.13 1801.5C2099.9 1782.3 2074.45 1768.46 2052.83 1760.21C2009.18 1743.58 1966.14 1749.17 1926.11 1772.27C1873.72 1802.53 1851.4 1850.7 1853.36 1910.65C1854.14 1934.26 1860.48 1957.02 1873.01 1977.11C1877.43 1984.19 1882.36 1990.84 1887.69 1997.17ZM1479.31 480.797H1702.61V709.068H1815.51C1867.66 709.068 1921.29 699.781 1970.66 683.053C1994.93 674.82 2022.15 663.375 2046.09 648.971C2014.57 607.818 1998.47 555.855 1993.75 504.635C1987.3 434.957 2001.36 344.273 2048.51 289.742L2071.99 262.594L2099.96 285.084C2170.38 341.656 2229.61 420.719 2240.04 510.846C2324.84 485.904 2424.4 491.803 2499.14 534.938L2529.8 552.633L2513.67 584.137C2450.46 707.496 2318.3 745.719 2189.1 738.951C1995.77 1220.48 1574.86 1448.45 1064.52 1448.45C800.846 1448.45 558.951 1349.89 421.197 1115.96L418.941 1112.15L398.873 1071.31C352.311 968.346 336.842 855.543 347.33 742.828L350.484 709.068H541.441V480.797H764.733V257.496H1211.34V34.1953H1479.31V480.797Z" fill="#364548"/>
<path fill-rule="evenodd" clip-rule="evenodd" d="M2202.77 565.25C2217.74 448.883 2130.66 357.486 2076.66 314.088C2014.42 386.041 2004.75 574.615 2102.39 654.01C2047.9 702.408 1933.08 746.275 1815.51 746.275H384.41C372.984 869 394.527 982.018 443.736 1078.75L460.016 1108.53C470.323 1126.01 481.587 1142.91 493.756 1159.16C552.594 1162.94 606.842 1164.23 656.471 1163.14H656.49C754.019 1160.99 833.6 1149.47 893.912 1128.57C898.176 1127.24 902.788 1127.63 906.774 1129.64C910.76 1131.65 913.806 1135.14 915.269 1139.36C916.731 1143.58 916.495 1148.2 914.611 1152.25C912.727 1156.3 909.342 1159.45 905.172 1161.05C897.144 1163.84 888.785 1166.44 880.152 1168.91H880.123C832.633 1182.48 781.705 1191.6 716.002 1195.65C719.908 1195.72 711.939 1196.24 711.92 1196.24C709.684 1196.38 706.871 1196.71 704.625 1196.82C678.766 1198.28 650.855 1198.58 622.32 1198.58C591.109 1198.58 560.377 1197.99 526.012 1196.24L525.133 1196.82C644.371 1330.85 830.816 1411.23 1064.53 1411.23C1559.14 1411.23 1978.67 1191.97 2164.45 699.732C2296.25 713.258 2422.92 679.645 2480.53 567.164C2388.76 514.205 2270.73 531.09 2202.77 565.25" fill="#22A0C8"/>
<path fill-rule="evenodd" clip-rule="evenodd" d="M2202.77 565.25C2217.74 448.883 2130.66 357.486 2076.66 314.088C2014.42 386.041 2004.75 574.615 2102.39 654.01C2047.9 702.408 1933.08 746.275 1815.51 746.275H469.156C463.316 934.225 533.063 1076.89 656.461 1163.14H656.49C754.02 1160.99 833.6 1149.47 893.912 1128.57C898.176 1127.24 902.789 1127.63 906.774 1129.64C910.76 1131.65 913.806 1135.14 915.269 1139.36C916.731 1143.58 916.496 1148.2 914.611 1152.25C912.727 1156.3 909.342 1159.45 905.172 1161.05C897.145 1163.84 888.785 1166.44 880.152 1168.91H880.123C832.633 1182.48 777.33 1192.77 711.627 1196.82C711.607 1196.82 710.035 1195.31 710.016 1195.31C878.346 1281.66 1122.42 1281.34 1402.25 1173.85C1716.02 1053.31 2008 823.658 2211.72 560.992C2208.66 562.379 2205.67 563.795 2202.77 565.25" fill="#37B1D9"/>
<path fill-rule="evenodd" clip-rule="evenodd" d="M387.096 895.387C395.982 961.129 415.221 1022.68 443.736 1078.75L460.016 1108.53C470.322 1126.01 481.586 1142.92 493.756 1159.16C552.604 1162.94 606.852 1164.23 656.49 1163.14C754.02 1160.99 833.6 1149.47 893.912 1128.57C898.176 1127.24 902.788 1127.63 906.774 1129.64C910.76 1131.65 913.806 1135.14 915.269 1139.36C916.731 1143.58 916.495 1148.2 914.611 1152.25C912.727 1156.3 909.342 1159.45 905.172 1161.05C897.145 1163.84 888.785 1166.44 880.152 1168.91H880.123C832.633 1182.48 777.623 1192.18 711.92 1196.25C709.664 1196.38 705.729 1196.41 703.453 1196.54C677.613 1197.98 649.986 1198.87 621.441 1198.87C590.24 1198.87 558.326 1198.28 523.98 1196.53C643.219 1330.55 830.816 1411.23 1064.53 1411.23C1487.96 1411.23 1856.36 1250.5 2070.18 895.387H387.096Z" fill="#1B81A5"/>
<path fill-rule="evenodd" clip-rule="evenodd" d="M482.037 895.387C507.35 1010.82 568.18 1101.43 656.49 1163.14C754.02 1160.99 833.6 1149.47 893.912 1128.57C898.176 1127.24 902.788 1127.63 906.774 1129.64C910.76 1131.65 913.806 1135.14 915.269 1139.36C916.731 1143.58 916.495 1148.2 914.611 1152.25C912.727 1156.3 909.342 1159.45 905.172 1161.05C897.145 1163.84 888.785 1166.44 880.152 1168.91H880.123C832.633 1182.48 776.461 1192.18 710.748 1196.25C879.068 1282.57 1122.44 1281.33 1402.25 1173.85C1571.53 1108.81 1734.45 1012 1880.61 895.387H482.037Z" fill="#1D91B4"/>
<path fill-rule="evenodd" clip-rule="evenodd" d="M578.648 518.014H772.184V711.549H578.648V518.014ZM594.771 534.146H610.045V695.426H594.771V534.146ZM623.482 534.146H639.371V695.426H623.492V534.146H623.482ZM652.799 534.146H668.688V695.426H652.799V534.146ZM682.135 534.146H698.014V695.426H682.135V534.146ZM711.461 534.146H727.34V695.426H711.461V534.146ZM740.777 534.146H756.061V695.426H740.777V534.146ZM801.949 294.713H995.494V488.238H801.939V294.713H801.949ZM818.082 310.846H833.346V472.115H818.082V310.846ZM846.793 310.846H862.672V472.115H846.803V310.846H846.793ZM876.109 310.846H891.988V472.115H876.109V310.846ZM905.436 310.846H921.314V472.115H905.436V310.846ZM934.762 310.846H950.65V472.115H934.762V310.846ZM964.078 310.846H979.371V472.115H964.078V310.846Z" fill="#23A3C2"/>
<path fill-rule="evenodd" clip-rule="evenodd" d="M801.949 518.014H995.494V711.549H801.939V518.014H801.949ZM818.082 534.146H833.346V695.426H818.082V534.146ZM846.793 534.146H862.672V695.426H846.803V534.146H846.793ZM876.109 534.146H891.988V695.426H876.109V534.146ZM905.436 534.146H921.314V695.426H905.436V534.146ZM934.762 534.146H950.65V695.426H934.762V534.146ZM964.078 534.146H979.371V695.426H964.078V534.146Z" fill="#34BBDE"/>
<path fill-rule="evenodd" clip-rule="evenodd" d="M1025.26 518.014H1218.79V711.549H1025.26V518.014ZM1041.38 534.146H1056.65V695.426H1041.38V534.146ZM1070.09 534.146H1085.97V695.426H1070.09V534.146ZM1099.42 534.146H1115.3V695.426H1099.42V534.146ZM1128.75 534.146H1144.63V695.426H1128.75V534.146ZM1158.06 534.146H1173.96V695.426H1158.06V534.146ZM1187.39 534.146H1202.66V695.426H1187.39V534.146V534.146Z" fill="#23A3C2"/>
<path fill-rule="evenodd" clip-rule="evenodd" d="M1025.26 294.713H1218.79V488.238H1025.26V294.713ZM1041.38 310.846H1056.65V472.115H1041.38V310.846ZM1070.09 310.846H1085.97V472.115H1070.09V310.846ZM1099.42 310.846H1115.3V472.115H1099.42V310.846ZM1128.75 310.846H1144.63V472.115H1128.75V310.846ZM1158.06 310.846H1173.96V472.115H1158.06V310.846ZM1187.39 310.846H1202.66V472.115H1187.39V310.846V310.846ZM1248.56 518.014H1442.1V711.549H1248.56V518.014ZM1264.69 534.146H1279.96V695.426H1264.69V534.146ZM1293.4 534.146H1309.28V695.426H1293.4V534.146ZM1322.72 534.146H1338.6V695.426H1322.72V534.146ZM1352.05 534.146H1367.94V695.426H1352.05V534.146ZM1381.37 534.146H1397.26V695.426H1381.37V534.146ZM1410.7 534.146H1425.97V695.426H1410.7V534.146Z" fill="#34BBDE"/>
<path fill-rule="evenodd" clip-rule="evenodd" d="M1248.56 294.713H1442.1V488.238H1248.56V294.713ZM1264.69 310.846H1279.96V472.115H1264.69V310.846ZM1293.4 310.846H1309.28V472.115H1293.4V310.846ZM1322.72 310.846H1338.6V472.115H1322.72V310.846ZM1352.05 310.846H1367.94V472.115H1352.05V310.846ZM1381.37 310.846H1397.26V472.115H1381.37V310.846ZM1410.7 310.846H1425.97V472.115H1410.7V310.846Z" fill="#23A3C2"/>
<path fill-rule="evenodd" clip-rule="evenodd" d="M1248.56 71.4023H1442.1V264.957H1248.56V71.4023ZM1264.69 87.5254H1279.96V248.814H1264.69V87.5156V87.5254ZM1293.4 87.5254H1309.28V248.814H1293.4V87.5156V87.5254ZM1322.72 87.5254H1338.6V248.814H1322.72V87.5156V87.5254ZM1352.05 87.5254H1367.94V248.814H1352.05V87.5156V87.5254ZM1381.37 87.5254H1397.26V248.814H1381.37V87.5156V87.5254ZM1410.7 87.5254H1425.97V248.814H1410.7V87.5156V87.5254Z" fill="#34BBDE"/>
<path fill-rule="evenodd" clip-rule="evenodd" d="M1471.86 518.014H1665.4V711.549H1471.86V518.014ZM1487.97 534.146H1503.26V695.426H1487.98V534.146H1487.97ZM1516.69 534.146H1532.57V695.426H1516.7V534.146H1516.69ZM1546.02 534.146H1561.91V695.426H1546.02V534.146ZM1575.34 534.146H1591.23V695.426H1575.34V534.146ZM1604.67 534.146H1620.55V695.426H1604.67V534.146ZM1633.99 534.146H1649.26V695.426H1633.99V534.146Z" fill="#23A3C2"/>
<path fill-rule="evenodd" clip-rule="evenodd" d="M983.375 1025.33C990.448 1025.23 997.468 1026.55 1004.03 1029.19C1010.59 1031.83 1016.56 1035.75 1021.6 1040.72C1026.63 1045.68 1030.63 1051.6 1033.36 1058.13C1036.08 1064.66 1037.49 1071.66 1037.49 1078.73C1037.48 1085.8 1036.08 1092.81 1033.35 1099.33C1030.62 1105.86 1026.62 1111.77 1021.58 1116.74C1016.55 1121.71 1010.57 1125.62 1004.01 1128.26C997.449 1130.9 990.428 1132.21 983.356 1132.12C969.32 1131.92 955.924 1126.21 946.068 1116.22C936.211 1106.22 930.686 1092.75 930.689 1078.71C930.692 1064.67 936.221 1051.2 946.081 1041.21C955.942 1031.22 969.339 1025.52 983.375 1025.33Z" fill="#D3ECEC"/>
<path fill-rule="evenodd" clip-rule="evenodd" d="M983.375 1040.47C988.258 1040.47 992.916 1041.39 997.213 1043.06C994.248 1044.78 991.932 1047.43 990.624 1050.6C989.315 1053.77 989.087 1057.28 989.973 1060.6C990.86 1063.91 992.813 1066.83 995.53 1068.93C998.247 1071.02 1001.58 1072.15 1005.01 1072.16C1010.91 1072.16 1016.04 1068.89 1018.7 1064.05C1021.84 1071.62 1022.47 1080.01 1020.48 1087.97C1018.49 1095.93 1014 1103.04 1007.66 1108.25C1001.32 1113.45 993.478 1116.48 985.285 1116.89C977.092 1117.3 968.986 1115.06 962.163 1110.51C955.34 1105.95 950.162 1099.33 947.395 1091.6C944.628 1083.88 944.418 1075.47 946.796 1067.62C949.174 1059.77 954.013 1052.9 960.6 1048.01C967.187 1043.12 975.172 1040.48 983.375 1040.47V1040.47ZM39 914.684H2522.66C2468.59 900.973 2351.57 882.437 2370.87 811.559C2272.53 925.348 2035.39 891.393 1975.53 835.289C1908.89 931.949 1520.9 895.201 1493.84 819.898C1410.29 917.955 1151.39 917.955 1067.84 819.898C1040.76 895.201 652.779 931.949 586.129 835.279C526.285 891.393 289.156 925.348 190.816 811.568C210.113 882.437 93.0918 900.973 39 914.693" fill="#364548"/>
<path fill-rule="evenodd" clip-rule="evenodd" d="M1125.3 1410.07C993.072 1347.33 920.504 1262.03 880.123 1168.92C831.002 1182.94 771.969 1191.9 703.365 1195.75C677.525 1197.19 650.338 1197.94 621.822 1197.94C588.932 1197.94 554.273 1196.96 517.887 1195.04C639.146 1316.23 788.316 1409.53 1064.53 1411.23C1084.92 1411.23 1105.15 1410.84 1125.3 1410.07" fill="#BDD9D7"/>
<path fill-rule="evenodd" clip-rule="evenodd" d="M929.234 1254.84C910.943 1230.01 893.199 1198.79 880.152 1168.9C831.031 1182.94 771.979 1191.9 703.365 1195.76C750.494 1221.33 817.887 1245.04 929.244 1254.84" fill="#D3ECEC"/>
</svg>
